<svg width="133" height="31" viewBox="0 0 133 31" fill="none" xmlns="http://www.w3.org/2000/svg">
<path fill-rule="evenodd" clip-rule="evenodd" d="M15.5289 0.977722C15.5289 0.977722 14.2052 1.08287 14.0724 2.01094C13.9025 3.19685 13.0595 9.08322 12.8901 10.264C12.7207 11.4447 13.8734 11.3983 13.7702 11.4285C13.667 11.4587 23.0072 11.8086 23.0072 11.8086C23.0072 11.8086 21.7399 20.6553 21.581 21.7647C21.422 22.8741 22.571 23.075 22.571 23.075L30.2975 23.9497C31.5851 24.0954 31.7541 22.9165 31.7541 22.9165L34.9067 0.908326C34.9067 0.908326 34.8995 -0.0837263 33.989 0.00570221C33.0785 0.0951307 15.5289 0.977722 15.5289 0.977722Z" fill="#00D6E1"/>
<path fill-rule="evenodd" clip-rule="evenodd" d="M1.65587 7.17495C1.65587 7.17495 0.332051 7.28039 0.199166 8.20817C0.0293128 9.39418 -0.813697 15.2804 -0.982989 16.4613C-1.15228 17.6421 0.000280562 17.5956 -0.102919 17.6259C-0.206119 17.6561 9.1342 18.0059 9.1342 18.0059C9.1342 18.0059 7.86667 26.8527 7.70779 27.962C7.5489 29.0714 8.69783 29.2723 8.69783 29.2723L16.4245 30.1469C17.7121 30.2927 17.881 29.1137 17.881 29.1137L21.0337 7.1056C21.0337 7.1056 21.0266 6.11379 20.116 6.20293C19.2054 6.29207 1.65587 7.17495 1.65587 7.17495Z" fill="#0175FF"/>
<path fill-rule="evenodd" clip-rule="evenodd" d="M20.3743 11.7085L21.0337 7.1055C21.0337 7.1055 21.0266 6.11369 20.116 6.20283C19.7585 6.23782 16.8366 6.39515 13.4189 6.57336C13.1875 8.18856 12.9679 9.72198 12.8901 10.264C12.7487 11.2494 13.5283 11.3801 13.73 11.4139C13.77 11.4206 13.7873 11.4235 13.7702 11.4285C13.7032 11.4482 17.6205 11.6027 20.3743 11.7085Z" fill="#005BEC"/>
<path d="M51.3526 25.4323C51.3526 25.8192 51.0389 26.1329 50.652 26.1329H48.1591C47.7721 26.1329 47.4584 25.8192 47.4584 25.4323V9.34386H42.3822C41.9952 9.34386 41.6815 9.03016 41.6815 8.64319V6.40819C41.6815 6.02122 41.9952 5.70752 42.3822 5.70752H56.4031C56.79 5.70752 57.1037 6.02122 57.1037 6.40819V8.64319C57.1037 9.03016 56.79 9.34386 56.4031 9.34386H51.3526V25.4323Z" fill="#0070F9"/>
<path d="M62.3445 26.494C60.9003 26.494 59.6366 26.1759 58.5535 25.5398C57.4875 24.9036 56.6622 24.001 56.0777 22.8318C55.5103 21.6455 55.2266 20.2529 55.2266 18.6539C55.2266 17.0722 55.5103 15.6967 56.0777 14.5276C56.6622 13.3413 57.4875 12.43 58.5535 11.7939C59.6366 11.1577 60.9003 10.8397 62.3445 10.8397C63.7888 10.8397 65.0439 11.1577 66.1098 11.7939C67.1758 12.43 67.9925 13.3413 68.5598 14.5276C69.1444 15.6967 69.4367 17.0722 69.4367 18.6539C69.4367 20.2529 69.1444 21.6455 68.5598 22.8318C67.9925 24.001 67.1758 24.9036 66.1098 25.5398C65.0439 26.1759 63.7888 26.494 62.3445 26.494ZM62.3445 22.935C63.3417 22.935 64.1326 22.5482 64.7172 21.7745C65.3018 21.0008 65.594 19.9606 65.594 18.6539C65.594 17.3472 65.3018 16.3157 64.7172 15.5592C64.1326 14.7855 63.3417 14.3986 62.3445 14.3986C61.3301 14.3986 60.5307 14.7855 59.9461 15.5592C59.3615 16.3157 59.0693 17.3472 59.0693 18.6539C59.0693 19.9606 59.3615 21.0008 59.9461 21.7745C60.5307 22.5482 61.3301 22.935 62.3445 22.935Z" fill="#0070F9"/>
<path d="M72.6946 26.1329C72.3076 26.1329 71.9939 25.8192 71.9939 25.4323V6.40819C71.9939 6.02122 72.3076 5.70752 72.6946 5.70752H78.5563C80.7054 5.70752 82.5451 6.12015 84.0753 6.94542C85.6226 7.77069 86.8004 8.94842 87.6084 10.4786C88.4165 12.0088 88.8206 13.8227 88.8206 15.9202C88.8206 18.0006 88.3993 19.8145 87.5569 21.3618C86.7144 22.892 85.4851 24.0697 83.8689 24.895C82.27 25.7203 80.353 26.1329 78.1178 26.1329H72.6946ZM78.1436 22.4708C80.2756 22.4708 81.9175 21.8948 83.0695 20.7429C84.2386 19.5909 84.8232 17.9834 84.8232 15.9202C84.8232 13.8399 84.2644 12.2237 83.1468 11.0718C82.0293 9.91983 80.4303 9.34386 78.35 9.34386H75.8882V22.4708H78.1436Z" fill="#0070F9"/>
<path d="M104.4 17.545C104.4 18.2742 104.339 18.937 104.216 19.5333C104.153 19.8397 103.875 20.0466 103.562 20.0466H94.4197C94.5745 21.0953 94.9441 21.912 95.5287 22.4966C96.1132 23.064 96.9041 23.3476 97.9013 23.3476C98.5375 23.3476 99.122 23.1671 99.655 22.8061C100.032 22.5509 100.361 22.2272 100.643 21.8347C100.846 21.553 101.216 21.4259 101.53 21.5736L103.451 22.4776C103.776 22.6308 103.92 23.0202 103.739 23.3313C103.21 24.2431 102.501 24.9707 101.615 25.514C100.566 26.1673 99.3198 26.494 97.8755 26.494C96.3797 26.494 95.0731 26.1845 93.9555 25.5655C92.8552 24.9294 92.0041 24.0354 91.4023 22.8834C90.8006 21.7143 90.4997 20.3474 90.4997 18.7829C90.4997 17.1667 90.792 15.7655 91.3765 14.5792C91.9611 13.3756 92.7864 12.4558 93.8524 11.8197C94.9355 11.1663 96.2078 10.8397 97.6692 10.8397C99.0103 10.8397 100.188 11.1147 101.202 11.6649C102.217 12.2151 102.999 12.9974 103.549 14.0118C104.117 15.0262 104.4 16.2039 104.4 17.545ZM100.558 16.926C100.558 16.032 100.3 15.3185 99.784 14.7855C99.2682 14.2525 98.5633 13.986 97.6692 13.986C96.844 13.986 96.1648 14.2439 95.6318 14.7597C95.0989 15.2583 94.7292 15.9804 94.5229 16.926H100.558Z" fill="#0070F9"/>
<path d="M111.887 26.494C110.357 26.494 109.042 26.1501 107.941 25.4624C107.024 24.8889 106.327 24.1419 105.852 23.2216C105.691 22.9106 105.847 22.5396 106.167 22.398L108.139 21.5249C108.471 21.3781 108.853 21.5335 109.047 21.8399C109.3 22.2402 109.611 22.5708 109.979 22.8318C110.529 23.1929 111.165 23.3734 111.887 23.3734C112.575 23.3734 113.099 23.2531 113.46 23.0124C113.821 22.7545 114.002 22.4106 114.002 21.9808C114.002 21.5682 113.796 21.2243 113.383 20.9492C112.97 20.6741 112.317 20.442 111.423 20.2529C109.652 19.8402 108.285 19.2557 107.322 18.4992C106.36 17.7427 105.878 16.7541 105.878 15.5334C105.878 14.0892 106.411 12.9458 107.477 12.1034C108.543 11.2609 109.962 10.8397 111.732 10.8397C113.125 10.8397 114.354 11.1749 115.42 11.8455C116.321 12.4028 117.025 13.1324 117.533 14.0343C117.708 14.3435 117.562 14.7256 117.241 14.8767L115.309 15.7858C114.995 15.9336 114.625 15.8065 114.423 15.5247C114.141 15.1323 113.811 14.8085 113.435 14.5534C112.902 14.1751 112.343 13.986 111.758 13.986C111.122 13.986 110.623 14.1149 110.262 14.3728C109.919 14.6307 109.747 14.9746 109.747 15.4044C109.747 15.8171 109.962 16.1609 110.391 16.436C110.838 16.7111 111.603 16.969 112.687 17.2097C116.125 17.9834 117.845 19.505 117.845 21.7745C117.845 22.7029 117.587 23.5282 117.071 24.2503C116.572 24.9552 115.867 25.5054 114.956 25.9008C114.062 26.2963 113.039 26.494 111.887 26.494Z" fill="#0070F9"/>
<path d="M132.914 25.4582C133.124 25.735 132.926 26.1329 132.579 26.1329H129.029C128.81 26.1329 128.605 26.0277 128.478 25.8502L124.271 19.995L123.446 20.8203V25.4323C123.446 25.8192 123.132 26.1329 122.745 26.1329H120.381C119.994 26.1329 119.68 25.8192 119.68 25.4323V6.40819C119.68 6.02122 119.994 5.70752 120.381 5.70752H122.745C123.132 5.70752 123.446 6.02122 123.446 6.40819V16.075L127.731 11.4197C127.86 11.2801 128.041 11.2007 128.231 11.2007H132.05C132.425 11.2007 132.612 11.6535 132.347 11.9184L126.824 17.4418L132.914 25.4582Z" fill="#0070F9"/>
</svg>
